# xmcd
#
# Track frame offsets: 
#        150
#        32516
#        58900
#        92495
#        117031
#        147212
#        168795
#        201687
#        227907
#        254589
#
# Disc length: 3644 seconds
#
# Revision: 0
# Processed by: cddbd v1.5.2PL0 Copyright (c) Steve Scherf et al.
# Submitted via: ExactAudioCopy v1.1
#
DISCID=8a0e3a0a
DTITLE=Oz Noy - Who Gives A Funk
DYEAR=2016
DGENRE=Blues
TTITLE0=Come On (Feat. Fred Wesley)
TTITLE1=Flashback (Feat. John Medeski)
TTITLE2=Better Get It In Your Soul (Feat. Randy Becker)
TTITLE3=I Got You (I Feel Good) (Feat. Chris Potter)
TTITLE4=A Change Is Gonna Come
TTITLE5=Ice Man (Feat. Robben Ford)
TTITLE6=Zig Zag
TTITLE7=Damn, This Groove (Feat. Dweezil Zappa)
TTITLE8=Little Wing (Feat. Corey Glover)
TTITLE9=Five Spot Blues (Feat. Joe Bonamassa)
EXTD=
EXTT0=
EXTT1=
EXTT2=
EXTT3=
EXTT4=
EXTT5=
EXTT6=
EXTT7=
EXTT8=
EXTT9=
PLAYORDER=
